<?xml version="1.0" encoding="UTF-8"?>
<svg width="40px" height="52px" viewBox="0 0 40 52" version="1.1" xmlns="http://www.w3.org/2000/svg" xmlns:xlink="http://www.w3.org/1999/xlink">
    <title>UnSelected</title>
    <g id="alert-trash-icons" stroke="none" stroke-width="1" fill="none" fill-rule="evenodd">
        <g id="UnSelected" transform="translate(-17.000000, -11.000000)" fill-rule="nonzero">
            <g transform="translate(17.000000, 11.000000)">
                <path d="M19.9999989,0 C31.045695,0 39.9999989,8.99500639 39.9999989,20.0909091 C39.9999989,20.4535402 39.9904361,20.8139273 39.9715478,21.1718299 C40.4941158,27.3792287 33.8203937,37.5057631 19.9503724,51.5510786 C13.0003541,44.2205054 7.86619494,37.9855187 4.5478949,32.8461186 C2.69329091,30.582749 1.32256045,27.9041157 0.593899191,24.9701937 C0.12795456,23.4685907 -0.0639123194,22.1332583 0.018616305,20.9634805 C0.00622215224,20.6744373 -1.08076262e-06,20.3834031 -1.08076262e-06,20.0909091 C-1.08076262e-06,8.99500639 8.954305,0 19.9999989,0 Z" id="Combined-Shape" fill="#79B943"></path>
                <g id="iconfinder_90_111056" transform="translate(10.196078, 9.454545)" fill="#FFFFFF">
                    <path d="M19.1782209,4.9241137 L16.0222334,4.9241137 L16.0222334,1.96960212 C16.0222334,0.881443019 15.1531972,0 14.0801817,0 L6.31181482,0 C5.23885279,0 4.36970973,0.881497218 4.36970973,1.96960212 L4.36970973,4.9241679 L1.2137756,4.9241679 C0.54385569,4.9241679 0,5.47575405 0,6.15530472 C0,6.834747 0.54385569,7.38633315 1.2137756,7.38633315 L1.94210509,7.38633315 L1.94210509,21.6667615 C1.94210509,22.7549748 2.81114127,23.6363636 3.88415674,23.6363636 L16.5078932,23.6363636 C17.5808553,23.6363636 18.4499449,22.7549748 18.4499449,21.6667615 L18.4499449,7.38633315 L19.1782744,7.38633315 C19.8481409,7.38633315 20.3921569,6.834747 20.3921569,6.15530472 C20.3921569,5.47569985 19.8480874,4.9241137 19.1782209,4.9241137 Z M13.5946822,4.9241137 L6.79726093,4.9241137 L6.79726093,3.54555481 C6.79726093,2.94486411 7.2733551,2.46205685 7.8655737,2.46205685 L12.5263694,2.46205685 C13.1186949,2.46205685 13.5946822,2.94491831 13.5946822,3.54555481 L13.5946822,4.9241137 L13.5946822,4.9241137 Z M6.79726093,8.37113421 L6.79726093,20.1893431 C6.79726093,20.7309024 6.36007085,21.1742526 5.82626182,21.1742526 C5.2924528,21.1742526 4.85526272,20.7309024 4.85526272,20.1893431 L4.85526272,8.37113421 C4.85526272,7.82973752 5.29239936,7.38633315 5.82626182,7.38633315 C6.36012429,7.38633315 6.79726093,7.82973752 6.79726093,8.37113421 Z M11.167131,8.37113421 L11.167131,20.1893431 C11.167131,20.7309024 10.7299409,21.1742526 10.196025,21.1742526 C9.66216252,21.1742526 9.22502589,20.7309024 9.22502589,20.1893431 L9.22502589,8.37113421 C9.22502589,7.82973752 9.66221596,7.38633315 10.196025,7.38633315 C10.7299409,7.38633315 11.167131,7.82973752 11.167131,8.37113421 Z M15.5366804,8.37113421 L15.5366804,20.1893431 C15.5366804,20.7309024 15.0994903,21.1742526 14.5657347,21.1742526 C14.0318723,21.1742526 13.5946287,20.7309024 13.5946287,20.1893431 L13.5946287,8.37113421 C13.5946287,7.82973752 14.0318723,7.38633315 14.5657347,7.38633315 C15.0995437,7.38633315 15.5366804,7.82973752 15.5366804,8.37113421 Z" id="Shape"></path>
                </g>
            </g>
        </g>
    </g>
</svg>